PathFileType	4	(X/Y/Z)	Run_500 02
DataRate	CameraRate	NumFrames	NumMarkers	Units	OrigDataRate	OrigDataStartFrame	OrigNumFrames
120	120	4	42	mm	120	174	128
Frame#	Time	LASI			RASI			LPSI			RPSI			RTH1			RTH2			RTH3			LTH1			LTH2			LTH3			RTB1			RTB2			LTB1			LTB2			LTB3			RCAL			RTOE			RMT5			LCAL			LTOE			LMT5			LACR			RACR			CLAV			C7			RUA1			RUA2			RUA3			RLEL			RMEL			LUA1			LUA2			LUA3			LLEL			LMEL			RFAsuperior			RFAradius			RFAulna			LFAsuperior			LFAradius			LFAulna			RTB3		
		X1	Y1	Z1	X2	Y2	Z2	X3	Y3	Z3	X4	Y4	Z4	X5	Y5	Z5	X6	Y6	Z6	X7	Y7	Z7	X8	Y8	Z8	X9	Y9	Z9	X10	Y10	Z10	X11	Y11	Z11	X12	Y12	Z12	X13	Y13	Z13	X14	Y14	Z14	X15	Y15	Z15	X16	Y16	Z16	X17	Y17	Z17	X18	Y18	Z18	X19	Y19	Z19	X20	Y20	Z20	X21	Y21	Z21	X22	Y22	Z22	X23	Y23	Z23	X24	Y24	Z24	X25	Y25	Z25	X26	Y26	Z26	X27	Y27	Z27	X28	Y28	Z28	X29	Y29	Z29	X30	Y30	Z30	X31	Y31	Z31	X32	Y32	Z32	X33	Y33	Z33	X34	Y34	Z34	X35	Y35	Z35	X36	Y36	Z36	X37	Y37	Z37	X38	Y38	Z38	X39	Y39	Z39	X40	Y40	Z40	X41	Y41	Z41	X42	Y42	Z42	

174	  1.450000	984.724711	1072.389059	-770.117462	986.607521	1075.975517	-515.573462	811.901660	1129.018962	-673.531641	806.355916	1115.854409	-587.606037	963.985213	906.257830	-455.945152	1059.394734	823.265675	-461.381165	1046.298458	701.094376	-507.423761	826.053702	886.426816	-810.773123	808.735018	754.165007	-791.031049	693.333104	694.147074	-758.672859	1248.737280	471.634111	-587.439547	1247.199498	400.017404	-519.973405	550.871641	504.113558	-690.556047	450.496710	511.620913	-728.107377	357.390304	447.027832	-657.736364	1271.631092	127.728150	-621.724330	1489.099404	213.617454	-620.962936	1442.205736	142.199515	-543.269780	212.293194	507.509794	-611.191988	230.285172	274.749231	-637.965890	174.122447	350.684078	-702.829022	1006.714479	1560.808384	-780.763841	914.777662	1565.366854	-461.700006	998.181890	1505.648346	-573.039202	890.845125	1584.091206	-644.931061	833.006933	1516.008062	-400.194694	783.481472	1440.685090	-399.726152	719.464077	1484.513264	-425.186192	602.853571	1400.370010	-385.995865	610.799917	1381.705441	-465.846063	1023.606593	1468.210501	-850.756314	1038.312457	1398.503648	-837.524767	953.604049	1376.182833	-881.702003	989.279327	1210.926357	-921.065698	914.329609	1197.288079	-871.167173	676.933115	1335.072290	-349.770744	820.440333	1217.914787	-378.870450	775.370505	1194.568054	-327.614284	1057.555324	1247.680698	-856.020026	1098.816622	1337.041544	-705.121200	1140.568488	1276.855887	-708.240845	1304.496705	316.579840	-592.073501	
175	  1.458333	986.122101	1071.941714	-770.330428	984.932562	1075.653075	-516.744312	812.123867	1126.768372	-674.097406	803.947053	1114.798752	-587.499074	960.766490	901.891763	-453.879077	1053.783599	818.030714	-460.098401	1041.303652	697.400740	-506.931684	832.990471	881.544780	-810.663895	816.560496	748.956972	-791.605177	702.691040	686.541111	-760.372268	1243.149030	467.014464	-588.293162	1241.466451	395.047837	-521.798949	557.339270	503.829943	-691.254418	457.845902	519.576173	-728.201761	359.504313	464.700712	-656.881461	1266.426910	123.491214	-626.262476	1484.099470	208.850979	-621.295433	1435.651574	137.006244	-544.925328	220.590396	537.888486	-609.806741	217.712797	304.909942	-638.658740	169.388190	386.065337	-703.261233	1006.779952	1558.683461	-780.866473	915.888907	1562.272516	-461.323492	998.246812	1503.600330	-573.639303	891.256731	1582.367951	-643.770838	835.096218	1511.555686	-399.041016	787.046118	1435.304205	-397.591836	721.732117	1477.982529	-421.358326	607.652432	1392.105912	-380.550793	614.530384	1372.979313	-460.488824	1022.475644	1466.174257	-851.513768	1036.077810	1396.533232	-839.096588	949.950057	1375.835751	-882.375632	983.410594	1210.389639	-923.306723	908.153572	1197.878397	-873.629279	683.646200	1328.283997	-344.802124	828.898529	1213.652694	-375.572047	784.881740	1190.281911	-322.990085	1052.654889	1243.657949	-857.357474	1096.974054	1328.578443	-704.709906	1136.566010	1266.992690	-708.930447	1299.003871	312.326220	-594.074975	
176	  1.466667	987.348857	1070.121545	-770.970141	982.710815	1074.912407	-517.742548	811.892674	1123.394010	-675.207580	802.580083	1112.721961	-588.250883	956.724486	898.488190	-452.612204	1049.217895	816.115056	-459.222486	1037.949624	695.332993	-507.029439	839.501284	875.889733	-810.709697	825.099094	742.434943	-792.364579	713.146568	677.323320	-762.529543	1236.477891	461.526377	-589.236108	1233.607543	389.069696	-523.831987	566.098170	502.805917	-691.979203	468.124216	525.771544	-728.566587	365.504133	481.620273	-656.278061	1253.692551	117.322705	-630.395194	1472.848648	200.243313	-623.548434	1423.094990	127.673022	-548.544692	234.238388	566.841426	-609.552483	209.589531	335.719675	-638.804795	170.805503	420.866356	-704.147288	1006.717806	1555.550714	-780.827679	917.397347	1558.212432	-460.992657	998.401772	1500.448781	-574.241931	891.516809	1579.628782	-642.607559	837.648570	1506.128655	-397.938930	791.246102	1429.014892	-395.019090	724.455509	1470.264226	-416.737025	613.383615	1382.199028	-374.041247	619.092088	1362.690699	-454.164721	1020.602642	1463.522826	-852.600658	1033.300631	1393.804615	-841.289425	945.819740	1374.715216	-883.053274	976.737822	1209.037090	-925.786991	901.090097	1197.752573	-876.062366	691.416832	1319.852722	-338.975152	838.808162	1208.570389	-371.708912	795.869945	1184.997746	-318.034949	1047.112793	1238.591410	-859.258270	1095.241088	1318.442609	-704.931415	1132.324443	1255.367461	-710.457085	1289.502028	305.945031	-596.657864	
177	  1.475000	988.323403	1066.958305	-771.438666	980.039383	1073.420240	-517.926625	811.182192	1118.598047	-676.691315	801.972461	1109.293890	-589.831901	952.223532	896.583009	-452.224417	1046.137242	816.735628	-459.091992	1035.295730	694.053330	-507.688000	845.345281	869.413819	-810.725888	834.459431	734.913848	-793.115280	724.672860	666.916401	-765.219511	1228.427355	454.975588	-590.393939	1223.616072	382.169984	-525.794374	576.905358	501.259130	-692.836170	480.826517	530.476714	-729.401442	375.113624	497.302326	-656.380966	1234.385843	110.052189	-633.449595	1456.064937	187.921990	-627.498250	1405.215484	114.556371	-553.518921	252.701867	593.532257	-610.496092	206.470081	366.128393	-638.697145	177.780494	453.811165	-705.363719	1006.614541	1551.401553	-780.739755	919.289465	1553.232560	-460.576548	998.640149	1496.204356	-574.779878	891.606944	1575.881328	-641.575537	840.684002	1499.665646	-396.729663	796.019526	1421.715099	-392.056334	727.767594	1461.374227	-411.475324	620.017555	1370.808047	-366.615115	624.493781	1350.973822	-446.937961	1018.130104	1460.235851	-854.006433	1030.105646	1390.234637	-843.926864	941.417655	1372.778678	-883.738956	969.388639	1206.889057	-928.494400	893.365618	1196.882947	-878.370738	700.156196	1310.100180	-332.461372	849.931481	1202.953137	-367.293643	808.252685	1178.878908	-312.814061	1040.954872	1232.505471	-861.686462	1093.482293	1306.690676	-705.818057	1127.785756	1242.133023	-712.904281	1276.339281	297.731533	-599.346574	
